<svg xmlns="http://www.w3.org/2000/svg" viewBox="0 0 20 20">
    <path
          d="M18.6 2H1.5C.7 2 0 2.7 0 3.5v11.9c0 .9.7 1.6 1.5 1.6h17c.8 0 1.5-.7 1.5-1.5v-12c.1-.8-.6-1.5-1.4-1.5zm-1.1 12c.3.3.3.8.1 1.1-.2.2-.4.3-.6.3-.2 0-.4-.1-.5-.2l-5-4.4-.9.8-.1.1s-.1 0-.1.1c-.1 0-.2.1-.3.1-.1 0-.2 0-.3-.1 0 0-.1 0-.1-.1 0 0-.1 0-.1-.1l-.9-.8-5 4.4c-.1.1-.3.2-.5.2s-.4-.1-.6-.3c-.3-.3-.3-.8.1-1.1l4.8-4.3-4.9-4.3c-.4-.3-.4-.8-.1-1.1.3-.3.8-.3 1.1-.1L10 9.9l6.4-5.7c.4-.2.9-.2 1.2.1.3.3.3.8-.1 1.1l-4.8 4.3 4.8 4.3z"/>
</svg>
