<svg id="Layer_1" xmlns="http://www.w3.org/2000/svg" viewBox="0 0 20 20">
    <path d="M18 12H2l-2 4h20l-2-4zM7.7 15l.3-1h4l.3 1H7.7zM0 17h20v2H0zM16.5 9.5h-13v-8h13M17 0H3c-.6 0-1 .4-1 1v10h16V1c0-.6-.4-1-1-1z"/>
    <path class="st0"
          d="M10.8 6.9c0-.2-.1-.4-.2-.5-.1-.1-.3-.3-.6-.4-.3-.1-.5-.2-.7-.3-.2-.1-.4-.2-.6-.4-.1-.1-.2-.3-.3-.5-.1-.1-.1-.4-.1-.6 0-.4.1-.8.4-1.1s.7-.5 1.1-.5V2h.6v.6c.5.1.8.3 1.1.6.3.3.5.7.5 1.2h-1.1c0-.3-.1-.6-.2-.7-.1-.2-.3-.2-.5-.2s-.4.1-.5.2c-.2.1-.3.3-.3.5s.1.4.2.5.3.2.6.3.6.2.8.4.4.2.5.4c.1.1.2.3.3.5.1.1.2.3.2.6 0 .4-.1.8-.4 1.1s-.7.4-1.2.5V9h-.7v-.5c-.5-.1-1-.3-1.3-.6-.2-.3-.4-.8-.4-1.3h1.1c0 .3.1.6.2.7.1.2.4.3.6.3.2 0 .4-.1.6-.2.2-.1.3-.3.3-.5z"/>
</svg>