<svg xmlns="http://www.w3.org/2000/svg" viewBox="0 0 20 20">
  <path d="M2 9V7.2C.8 7.6 0 8.7 0 10v4c0 1.3.8 2.4 2 2.8V20l4.5-3H10c1.7 0 3-1.3 3-3H7c-2.8 0-5-2.2-5-5z"/>
  <path d="M16.5 0h-9C5.6 0 4 1.6 4 3.5v5C4 10.4 5.6 12 7.5 12h6l4.5 3v-3.4c1.2-.6 2-1.8 2-3.1v-5C20 1.6 18.4 0 16.5 0zm-5.9 2.5c.4-.3.9-.5 1.6-.5.7 0 1.2.2 1.6.5s.6.8.6 1.4c0 .3-.1.5-.2.8-.1.2-.3.5-.6.8l-.4.4c-.2.2-.4.5-.4.8V7h-1.3c0-.5.1-.8.2-1.1s.3-.5.6-.8l.6-.6c0-.2.1-.3.1-.5 0-.6-.3-.8-.8-.8-.2 0-.4.1-.6.2s-.2.3-.2.6H10c0-.6.2-1.1.6-1.5zm.7 6c0-.2.1-.4.2-.5s.3-.2.6-.2.4.1.6.2.2.3.2.5-.1.4-.2.5c-.1.1-.3.2-.6.2s-.4-.1-.6-.2c-.1-.1-.2-.3-.2-.5z"/>
</svg>
