<svg id="Layer_1" xmlns="http://www.w3.org/2000/svg" viewBox="0 0 20 20">
    <circle cx="7.5" cy="4.5" r="3.5"/>
    <path d="M10.8 9.8c-.4-.2-.9-.4-1.4-.5h-.2c-.2-.1-.4-.2-.6-.2h-.2C8.1 9 7.8 9 7.5 9s-.6 0-.9.1h-.2c-.2 0-.4.1-.6.1h-.2c-.6.2-1.1.4-1.6.7C1.8 11.1.3 13.3 0 16h8.7c-.1-.5-.2-1-.2-1.5 0-1.9.9-3.6 2.3-4.7zM18.9 15.7c0-.2.1-.5.1-.7s0-.5-.1-.7l.1-.1.8-.8-1-1.8-1.1.3h-.1c-.4-.3-.8-.5-1.2-.7v-.1l-.3-1.1H14l-.3 1.1v.1c-.4.2-.8.4-1.2.7h-.2l-1.1-.3-1 1.8.9.9c0 .2-.1.4-.1.7 0 .2 0 .5.1.7l-.1.1-.8.8.1.3.9 1.6 1.1-.3h.1c.4.3.8.5 1.2.7v.1l.4 1h2.1l.3-1.1v-.1c.4-.2.8-.4 1.2-.7l1.2.3 1-1.8-.7-.7-.2-.2zm-3.9 1c-.9 0-1.7-.7-1.7-1.7s.7-1.7 1.7-1.7c.9 0 1.7.7 1.7 1.7s-.8 1.7-1.7 1.7z"/>
</svg>
