<svg xmlns="http://www.w3.org/2000/svg" viewBox="0 0 20 20">
    <path
          d="M17.1 11.2c.1-.4.1-.8.1-1.2s0-.8-.1-1.2l1.3-1.4c.2-.2.2-.5.1-.7l-1.4-2.3c-.1-.3-.4-.4-.6-.4l-1.8.4c-.7-.4-1.4-.9-2.2-1.2L12 1.4c-.1-.2-.4-.4-.6-.4H8.7c-.3 0-.5.2-.6.4l-.5 1.8c-.8.3-1.5.8-2.2 1.3L3.6 4c-.3 0-.6.1-.7.3L1.6 6.7c-.2.2-.1.5.1.7L3 8.8c-.1.4-.2.8-.2 1.2s0 .8.1 1.2l-1.3 1.4c-.2.2-.2.5-.1.7l1.4 2.3c.1.3.4.4.7.4l1.8-.4c.6.5 1.4.9 2.1 1.2l.5 1.8c.2.2.4.4.7.4h2.7c.2 0 .5-.2.6-.4l.5-1.8c.8-.3 1.5-.7 2.1-1.2l1.8.4c.2.1.5-.1.7-.3l1.4-2.3c.1-.2.1-.5-.1-.7l-1.3-1.5zM10 14.5c-2.5 0-4.5-2-4.5-4.5s2-4.5 4.5-4.5 4.5 2 4.5 4.5-2 4.5-4.5 4.5z"/>
    <circle cx="10" cy="10" r="2.5"/>
</svg>
