<svg xmlns="http://www.w3.org/2000/svg" viewBox="0 0 100 100">
    <path d="M50.2 80.1C33.6 80.1 26 71.6 26 65.4c0-3.2 2.5-5.4 5.7-5.4 7.1 0 5.3 10.7 18.5 10.7 6.8 0 10.8-4.1 10.8-7.9 0-2.3-1.3-4.9-5.8-6L40.4 53c-11.9-3-14-9.6-14-15.8 0-12.7 11.6-17.4 22.8-17.4 10.2 0 22.4 5.6 22.4 13.3 0 3.3-2.7 5.1-5.9 5.1-6.1 0-5.1-8.5-17.3-8.5-6.1 0-9.3 2.8-9.3 6.8s4.7 5.3 8.9 6.3l10.9 2.5C70.8 48 74 55 74 61.7c0 10.4-8 18.4-23.8 18.4m45.9-21.9c.5-2.7.7-5.4.7-8.2 0-26-21-47-46.8-47-2.8 0-5.5.2-8.1.7C37.8 1.3 33.1 0 28.1 0 12.7 0 .3 12.5.3 28c0 5 1.3 9.8 3.7 13.9-.5 2.7-.7 5.4-.7 8.2 0 26 20.9 47 46.8 47 2.8 0 5.5-.2 8.1-.7 4.1 2.3 8.8 3.7 13.8 3.7 15.4 0 27.8-12.5 27.8-28-.1-5.1-1.4-9.8-3.7-13.9"/>
</svg>
