<svg xmlns="http://www.w3.org/2000/svg" width="20" height="20" viewBox="0 0 20 20" overflow="scroll">
    <path d="M10 0C4.5 0 0 4.5 0 10s4.5 10 10 10 10-4.5 10-10S15.5 0 10 0zm0 18.5c-4.7 0-8.5-3.8-8.5-8.5S5.3 1.5 10 1.5s8.5 3.8 8.5 8.5-3.8 8.5-8.5 8.5z"/>
    <circle cx="6.5" cy="7" r="1.5"/>
    <circle cx="13.5" cy="7" r="1.5"/>
    <path d="M14.4 12.3c-1.1 1.4-2.6 2.2-4.4 2.2s-3.3-.8-4.4-2.2c-.2-.2-.5-.3-.7-.1-.2.2-.3.5-.1.7 1.2 1.6 3.1 2.6 5.2 2.6s3.9-.9 5.2-2.6c.2-.2.1-.5-.1-.7-.2-.1-.6-.1-.7.1z"/>
</svg>